<svg xmlns="http://www.w3.org/2000/svg" width="315.083" height="512.047" viewBox="0 0 315.083 512.047">
  <g id="energy" transform="translate(-98.483 0)">
    <path id="パス_8" data-name="パス 8" d="M395.32,181.387,286.7,205.14,339.81,19.16c4.614-16.164-17-26.519-26.69-12.752l-211.861,301c-7.966,11.318,2.418,26.507,15.852,23.2l96.784-23.826L160.959,492.939c-4.561,16.04,16.673,26.263,26.478,13.036l223.139-301c8.234-11.11-1.749-26.54-15.256-23.588Z" fill="#fcee21"/>
    <path id="パス_9" data-name="パス 9" d="M385.636,422.043l-36-.6,19.12-37.6a15,15,0,0,0-26.742-13.6l-30,59c-6.1,11.965,1.884,19.807,13.387,21.8l35.914.6-19.345,38.691A15,15,0,1,0,368.8,503.751l30-60a15.033,15.033,0,0,0-13.167-21.708Z" fill="#fcee21"/>
    <path id="パス_10" data-name="パス 10" d="M152.094,1.625a15,15,0,0,0-20.125,6.708l-30,60a15.029,15.029,0,0,0,13.5,21.708h35.642l-19.146,38.292A15,15,0,1,0,158.8,141.75l30-60a15.026,15.026,0,0,0-13.417-21.708H139.656L158.8,21.75A15,15,0,0,0,152.094,1.625Z" fill="#fcee21"/>
  </g>
</svg>
