<svg id="レイヤー_1" data-name="レイヤー 1" xmlns="http://www.w3.org/2000/svg" viewBox="0 0 294 176"><defs><style>.cls-1{fill:#fcee21;}</style></defs><polygon class="cls-1" points="240.99 37.41 244.42 24.27 294.49 13.67 274.37 2.6 173.13 24.04 170.54 39.92 212.27 31.08 206.45 64.73 220.76 61.81 212.47 98.78 228 95.63 209.93 172.92 246.74 74.58 238.58 75.95 251.22 35.18 240.99 37.41"/><polygon class="cls-1" points="212.63 83.63 157.49 95.11 169.82 25 153.5 28.61 139 114 209 99.11 212.63 83.63"/><polygon class="cls-1" points="6.76 151.95 20.62 144.47 292 87 278.14 94.49 6.76 151.95"/><path class="cls-1" d="M41.22,133.56a8.78,8.78,0,0,1-4.35-.19A8.08,8.08,0,0,1,34.35,132a5.35,5.35,0,0,1-2.3-4.31V113.48a5.35,5.35,0,0,1,2.3-4.31c1.53-1.2,2.65-1.27,5.49-1.8l26.38-5.2v5.63L39,113.31v15.48l27.31-6v5.43Z"/><path class="cls-1" d="M68.5,98.28V92.81l6.92-1.4v5.67Zm0,29.64V101.47l6.92-1.3v26.35Z"/><path class="cls-1" d="M87.06,124.61a8.31,8.31,0,0,1-3.58,0,8.13,8.13,0,0,1-3.24-1.56A5.38,5.38,0,0,1,78,118.75v-.87l6.53-1.38.08,1.73a1.33,1.33,0,0,0,.62,1,2.14,2.14,0,0,0,1.25.25l17.84-3.73v-4c0-.49,0-1.23,0-1.23l-17,3.58a8.28,8.28,0,0,1-4.47-.11,8.1,8.1,0,0,1-2.52-1.36A5.33,5.33,0,0,1,78,108.26v-3.74a5.24,5.24,0,0,1,2.31-4.3c1.45-1.07,4.38-1.6,5.25-1.74l.55-.11,16-3.56A8,8,0,0,1,109,96.32a5.38,5.38,0,0,1,2.28,4.32v.87l-6.47,1.27-.1-1.62c0-.48-.5-.81-.72-1a2.12,2.12,0,0,0-1.24-.25l-17.85,4,0,5.13L102,105.33a8,8,0,0,1,7,1.48,5.38,5.38,0,0,1,2.28,4.32v3.74a5.35,5.35,0,0,1-2.32,4.3c-1.53,1.19-5,1.86-5.55,2Z"/><path class="cls-1" d="M120.94,117.92a8.6,8.6,0,0,1-5.52-1.8,5.37,5.37,0,0,1-2.27-4.31V85.22l6.92-2v8.25l15.48-3V93.9l-15.48,3L120,111c0,.76.17,1.08.39,1.24a3.58,3.58,0,0,0,1.77.25l13.39-3v5.43Z"/></svg>